# xmcd
# 
# Track frame offsets:
#     150
#     15245
#     27295
#     41561
#     55030
#     67041
#     82477
#     95490
#     108409
#     121926
#     136213
#     148868
#     163148
#     175702
#     195825
#     208639
#     221918
#     236855
#     248049
#     262723
#     284088
#     297352
#     307640
#     319558
# 
# Disc length: 4336
# 
# Revision: 2
# Processed by: cddbd v1.5.2PL0 Copyright (c) Steve Scherf et al.
# Submitted via: fre:ac v1.0.17
# 
DISCID=5c10ee18
DTITLE=John Steinbeck - The Grapes of Wrath [CD08)
DYEAR=1939
DGENRE=Audiobook
TTITLE0=Chapter 16.15
TTITLE1=Chapter 16.16
TTITLE2=Chapter 16.17
TTITLE3=Chapter 16.18
TTITLE4=Chapter 16.19
TTITLE5=Chapter 16.20
TTITLE6=Chapter 16.21
TTITLE7=Chapter 16.22
TTITLE8=Chapter 16.23
TTITLE9=Chapter 16.24
TTITLE10=Chapter 16.25
TTITLE11=Chapter 16.26
TTITLE12=Chapter 16.27
TTITLE13=Chapter 16.28
TTITLE14=Chapter 17.01
TTITLE15=Chapter 17.02
TTITLE16=Chapter 17.03
TTITLE17=Chapter 17.04
TTITLE18=Chapter 17.05
TTITLE19=Chapter 17.06
TTITLE20=Chapter 18.01
TTITLE21=Chapter 18.02
TTITLE22=Chapter 18.03
TTITLE23=Chapter 18.04
EXTD=The Grapes of Wrath by John Steinbeck\nread by Dylan Baker recorded books 18 CDs\nnational folk country
EXTT0=
EXTT1=
EXTT2=
EXTT3=
EXTT4=
EXTT5=
EXTT6=
EXTT7=
EXTT8=
EXTT9=
EXTT10=
EXTT11=
EXTT12=
EXTT13=
EXTT14=
EXTT15=
EXTT16=
EXTT17=
EXTT18=
EXTT19=
EXTT20=
EXTT21=
EXTT22=
EXTT23=
PLAYORDER=
